# xmcd CD database file
#
# Track frame offsets:
#	150
#	19588
#	48480
#	76103
#	96773
#	118510
#	143553
#	183130
#
# Disc length: 2854 seconds
#
# Revision: 0
# Processed by: cddbd v1.5.1PL0 Copyright (c) Steve Scherf et al.
# Submitted via: CDex 1.51
#
DISCID=550b2408
DTITLE=折原みと - 天使のボディガード
DYEAR=1990
DGENRE=Anime
TTITLE0=プロローグ〜エンジェルズ・ボディガード
TTITLE1=本気でリッスン・トゥ・マイ・ハートビート
TTITLE2=ボーイ
TTITLE3=天使の翼
TTITLE4=姫乃木倫子でございます
TTITLE5=僕たちのメモリー
TTITLE6=あなただけの天使で
TTITLE7=ハッピー・スマイル
EXTD=YEAR: 1990
EXTT0=
EXTT1=
EXTT2=
EXTT3=
EXTT4=
EXTT5=
EXTT6=
EXTT7=
PLAYORDER=
